<svg xmlns="http://www.w3.org/2000/svg" viewBox="0 0 64 64">
  <defs>
    <linearGradient id="background" x1="8" y1="6" x2="56" y2="60" gradientUnits="userSpaceOnUse">
      <stop stop-color="#1e293b" />
      <stop offset="1" stop-color="#0f172a" />
    </linearGradient>
    <linearGradient id="bars" x1="16" y1="48" x2="48" y2="17" gradientUnits="userSpaceOnUse">
      <stop stop-color="#10b981" />
      <stop offset="1" stop-color="#6ee7b7" />
    </linearGradient>
  </defs>

  <rect x="3" y="3" width="58" height="58" rx="15" fill="url(#background)" />
  <path d="M15 48V37a3 3 0 0 1 3-3h4a3 3 0 0 1 3 3v11H15Z" fill="url(#bars)" />
  <path d="M28 48V29a3 3 0 0 1 3-3h4a3 3 0 0 1 3 3v19H28Z" fill="url(#bars)" />
  <path d="M41 48V20a3 3 0 0 1 3-3h4a3 3 0 0 1 3 3v28H41Z" fill="url(#bars)" />
  <path d="m16 29 10-8 9 3 13-12" fill="none" stroke="#f8fafc" stroke-width="4" stroke-linecap="round" stroke-linejoin="round" />
  <path d="M42 12h6v6" fill="none" stroke="#f8fafc" stroke-width="4" stroke-linecap="round" stroke-linejoin="round" />
</svg>
